<svg width="22" height="22" viewBox="0 0 22 22" fill="none" xmlns="http://www.w3.org/2000/svg">
<path d="M11.8927 2.36519C14.0406 0.217301 17.523 0.217302 19.6709 2.36519C21.8188 4.51307 21.8188 7.99548 19.6709 10.1434L16.1354 13.6789C13.9875 15.8268 10.5051 15.8268 8.3572 13.6789C8.15842 13.4801 7.97803 13.2699 7.81604 13.0504C7.57408 12.7225 7.64188 12.2729 7.93004 11.9847C8.40311 11.5117 9.23705 11.699 9.69542 12.1863C9.72026 12.2127 9.74559 12.2389 9.77141 12.2647C11.1382 13.6315 13.3543 13.6315 14.7212 12.2647L18.2567 8.72915C19.6235 7.36231 19.6235 5.14623 18.2567 3.7794C16.8899 2.41256 14.6738 2.41256 13.3069 3.7794L12.2463 4.84006C11.8558 5.23058 11.2226 5.23058 10.8321 4.84006C10.4415 4.44953 10.4415 3.81637 10.8321 3.42585L11.8927 2.36519Z" fill="#0F0F0F"/>
<path d="M5.52877 8.72915C7.57274 6.68518 10.897 6.64379 13.0203 8.46553C13.4028 8.79368 13.3717 9.37153 13.0153 9.72788C12.5962 10.147 11.9026 10.0832 11.4125 9.74985C10.0689 8.83577 8.15683 8.92952 6.94299 10.1434L3.40745 13.6789C2.04062 15.0457 2.04062 17.2618 3.40745 18.6286C4.77429 19.9955 6.99036 19.9955 8.3572 18.6286L9.41786 17.568C9.80838 17.1775 10.4415 17.1775 10.8321 17.568C11.2226 17.9585 11.2226 18.5917 10.8321 18.9822L9.77141 20.0429C7.62353 22.1907 4.14112 22.1907 1.99324 20.0429C-0.154647 17.895 -0.154647 14.4126 1.99324 12.2647L5.52877 8.72915Z" fill="#0F0F0F"/>
</svg>
