<?xml version="1.0" encoding="utf-8"?>
<!-- Generator: Adobe Illustrator 26.0.0, SVG Export Plug-In . SVG Version: 6.00 Build 0)  -->
<svg version="1.1" id="Layer_1" xmlns="http://www.w3.org/2000/svg" xmlns:xlink="http://www.w3.org/1999/xlink" x="0px" y="0px"
	 viewBox="0 0 24 21" style="enable-background:new 0 0 24 21;" xml:space="preserve">
<style type="text/css">
	.st0{fill-rule:evenodd;clip-rule:evenodd;fill:#5348D9;}
</style>
<path class="st0" d="M12.1,3.8c0-0.1,0.1-0.1,0.1-0.2C13,2,14.5,0.1,17.1,0.1c2.4,0,4.2,1.2,5.2,3c1,1.8,1.3,4,0.7,6.2
	c-0.3,1.1-0.9,2.1-1.7,3.2c-0.8,1-1.8,2.1-2.8,3.1c-2,1.9-4.2,3.6-5.2,4.4c-0.7,0.5-1.7,0.5-2.4,0c-1-0.8-3.2-2.5-5.2-4.4
	c-1-1-2-2-2.8-3.1c-0.8-1-1.5-2.1-1.7-3.2C0.6,7.1,0.9,4.8,1.9,3.1c1-1.8,2.9-3,5.2-3c2.6,0,4.1,2,4.9,3.6
	C12.1,3.7,12.1,3.8,12.1,3.8z"/>
</svg>
