<svg width="24" height="21" viewBox="0 0 24 21" fill="none" xmlns="http://www.w3.org/2000/svg">
<path fill-rule="evenodd" clip-rule="evenodd" d="M3.61652 4.0754C2.89085 5.3194 2.65203 7.04556 3.09789 8.829C3.25833 9.47078 3.72478 10.2959 4.46401 11.2455C5.18891 12.1768 6.11415 13.1502 7.09411 14.0843C9.0372 15.9363 11.1283 17.57 12.1277 18.3255C13.1272 17.57 15.2183 15.9363 17.1614 14.0843C18.1413 13.1502 19.0666 12.1768 19.7915 11.2455C20.5307 10.2959 20.9972 9.47078 21.1576 8.829C21.6035 7.04556 21.3646 5.31941 20.639 4.07541C19.9307 2.86118 18.7479 2.07153 17.1277 2.07153C15.7182 2.07153 14.7246 3.11381 14.0222 4.51875C13.6846 5.19382 13.4552 5.87898 13.31 6.40168C13.2379 6.66112 13.1879 6.87589 13.1563 7.02325C13.0444 7.54545 12.442 7.57153 12.1277 7.57153C11.8135 7.57153 11.21 7.54058 11.0992 7.02325C11.0676 6.87589 11.0175 6.66112 10.9455 6.40168C10.8003 5.87898 10.5708 5.19382 10.2333 4.51875C9.53083 3.11381 8.53731 2.07153 7.12772 2.07153C5.50754 2.07153 4.32481 2.86118 3.61652 4.0754ZM12.1277 3.84165C12.1619 3.76937 12.197 3.69689 12.2333 3.62432C13.0309 2.02925 14.5373 0.0715332 17.1277 0.0715332C19.5076 0.0715332 21.3248 1.28189 22.3665 3.06766C23.3909 4.82366 23.652 7.0975 23.0979 9.31407C22.8353 10.3642 22.1631 11.4547 21.3697 12.474C20.5619 13.5118 19.5604 14.5606 18.5413 15.532C16.5019 17.4758 14.3234 19.1737 13.3088 19.9399C12.6081 20.4689 11.6474 20.4689 10.9467 19.9399C9.93207 19.1737 7.75358 17.4758 5.71423 15.532C4.69508 14.5606 3.6936 13.5118 2.8858 12.474C2.09235 11.4547 1.42014 10.3642 1.1576 9.31407C0.603461 7.0975 0.864631 4.82366 1.88896 3.06766C2.93066 1.28189 4.74792 0.0715332 7.12772 0.0715332C9.71812 0.0715332 11.2246 2.02925 12.0222 3.62432C12.0584 3.69688 12.0936 3.76937 12.1277 3.84165Z" fill="black"/>
</svg>
