<svg width="7" height="23" viewBox="0 0 7 23" fill="none" xmlns="http://www.w3.org/2000/svg">
<path d="M6.28198 19.2041C6.28198 20.861 4.93884 22.2041 3.28198 22.2041C1.62513 22.2041 0.281982 20.861 0.281982 19.2041C0.281982 17.5472 1.62513 16.2041 3.28198 16.2041C4.93884 16.2041 6.28198 17.5472 6.28198 19.2041ZM2.25391 19.2041C2.25391 19.7719 2.71419 20.2322 3.28198 20.2322C3.84977 20.2322 4.31006 19.7719 4.31006 19.2041C4.31006 18.6363 3.84977 18.176 3.28198 18.176C2.71419 18.176 2.25391 18.6363 2.25391 19.2041Z" fill="#0F0F0F"/>
<path d="M6.28198 11.2041C6.28198 12.861 4.93884 14.2041 3.28198 14.2041C1.62513 14.2041 0.281982 12.861 0.281982 11.2041C0.281982 9.54725 1.62513 8.2041 3.28198 8.2041C4.93884 8.2041 6.28198 9.54725 6.28198 11.2041ZM2.25391 11.2041C2.25391 11.7719 2.71419 12.2322 3.28198 12.2322C3.84977 12.2322 4.31006 11.7719 4.31006 11.2041C4.31006 10.6363 3.84977 10.176 3.28198 10.176C2.71419 10.176 2.25391 10.6363 2.25391 11.2041Z" fill="#0F0F0F"/>
<path d="M6.28198 3.2041C6.28198 4.86096 4.93884 6.2041 3.28198 6.2041C1.62513 6.2041 0.281982 4.86096 0.281982 3.2041C0.281982 1.54725 1.62513 0.204102 3.28198 0.204102C4.93884 0.204102 6.28198 1.54725 6.28198 3.2041ZM2.25391 3.2041C2.25391 3.77189 2.71419 4.23218 3.28198 4.23218C3.84977 4.23218 4.31006 3.77189 4.31006 3.2041C4.31006 2.63631 3.84977 2.17602 3.28198 2.17602C2.71419 2.17602 2.25391 2.63631 2.25391 3.2041Z" fill="#0F0F0F"/>
</svg>
