<svg width="23" height="22" viewBox="0 0 23 22" fill="none" xmlns="http://www.w3.org/2000/svg">
<path fill-rule="evenodd" clip-rule="evenodd" d="M16.4291 14.6244C17.6613 13.084 18.3981 11.1301 18.3981 9.0041C18.3981 4.03127 14.3668 0 9.394 0C4.42117 0 0.389893 4.03127 0.389893 9.0041C0.389893 13.9769 4.42117 18.0082 9.394 18.0082C11.52 18.0082 13.4739 17.2714 15.0142 16.0392L20.682 21.707C21.0727 22.0977 21.7062 22.0977 22.0969 21.707C22.4876 21.3163 22.4876 20.6828 22.0969 20.2921L16.4291 14.6244ZM9.394 16.0173C5.5207 16.0173 2.38077 12.8774 2.38077 9.0041C2.38077 5.1308 5.5207 1.99087 9.394 1.99087C13.2673 1.99087 16.4072 5.1308 16.4072 9.0041C16.4072 12.8774 13.2673 16.0173 9.394 16.0173Z" fill="white"/>
</svg>
