<svg width="24" height="22" viewBox="0 0 24 22" fill="none" xmlns="http://www.w3.org/2000/svg">
<path fill-rule="evenodd" clip-rule="evenodd" d="M0.0225074 2.5505C-0.214652 0.816255 1.46624 -0.513966 3.00015 0.194072L21.9889 8.95911C23.6857 9.74236 23.6857 12.2576 21.9889 13.0409L3.00015 21.8059C1.46625 22.514 -0.214654 21.1838 0.0225071 19.4495L0.797843 13.7798C0.87153 13.241 1.25018 12.8024 1.75567 12.6704L8.15149 11L1.75567 9.32965C1.25018 9.19763 0.87153 8.75904 0.797843 8.2202L0.0225074 2.5505ZM21.1257 11L2.13691 2.23496L2.831 7.31057L12.3993 9.80946C13.5857 10.1193 13.5857 11.8807 12.3993 12.1905L2.831 14.6894L2.13691 19.765L21.1257 11Z" fill="black"/>
</svg>