<svg width="186" height="70" viewBox="0 0 186 70" fill="none" xmlns="http://www.w3.org/2000/svg">
<g clip-path="url(#clip0_348_582)">
<path d="M23.9473 23.0178C31.0597 23.0178 35.2597 17.7391 35.2597 11.4782V11.0179H23.794V12.6751H33.4816C32.9911 17.5856 29.5575 21.3298 23.9473 21.3298C18.2758 21.3298 14.1984 16.8797 14.1984 11.5089C14.1984 6.10739 18.2758 1.65728 24.0699 1.65728C27.8407 1.65728 30.7838 3.56009 32.4086 6.53706L33.9415 5.64704C31.9488 2.11764 28.4539 0 24.0699 0C17.3867 0 12.3896 5.15599 12.3896 11.5089C12.3896 17.8618 17.4174 23.0178 23.9473 23.0178Z" fill="black"/>
<path d="M43.5066 22.7109H45.2847V12L52.7343 0.306885H50.7416L44.365 10.3734L37.9883 0.306885H35.9956L43.5066 12.0613V22.7109Z" fill="black"/>
<path d="M56.0452 22.7109H57.8233V3.40662L66.8364 15.8056L76.2174 3.13041V22.7109H77.9648V0.306885H76.2787L66.8671 12.89L57.7926 0.306885H56.0452V22.7109Z" fill="black"/>
<path d="M21.7402 69.1406H13.4321V26.0205H21.7402V42.8389H41.9124V26.0205H50.2205V69.1406H41.9124V50.7877H21.7402V69.1406Z" fill="black"/>
<path d="M78.8233 69.9999C75.0423 69.9999 71.7825 69.2122 69.0438 67.6367C66.3255 66.0408 64.2511 63.8516 62.8204 61.069C61.4102 58.2659 60.7051 55.0843 60.7051 51.5243V26.0205H69.0131V50.5422C69.0131 52.8337 69.3912 54.8695 70.1474 56.6496C70.9036 58.4091 72.0175 59.78 73.489 60.7621C74.981 61.7442 76.7591 62.2352 78.8233 62.2352C80.908 62.2352 82.6861 61.7442 84.1576 60.7621C85.6496 59.78 86.7737 58.4091 87.5299 56.6496C88.3065 54.8695 88.6949 52.8337 88.6949 50.5422V26.0205H97.0029V51.5243C97.0029 55.0843 96.2876 58.2659 94.8569 61.069C93.4263 63.8516 91.3416 66.0408 88.6029 67.6367C85.8642 69.2122 82.6044 69.9999 78.8233 69.9999Z" fill="black"/>
<path d="M115.612 69.1406H107.457V26.0205H115.826L136.244 55.1764V26.0205H144.398V69.1406H136.673L115.612 39.1253V69.1406Z" fill="black"/>
<path d="M173.339 69.1406H165.031V33.7852H152.4V26.0205H186V33.7852H173.339V69.1406Z" fill="black"/>
<path d="M11.4742 64.0379H5.64941V32.1199H11.4742V64.0379Z" fill="black"/>
<path d="M4.1532 59.0124H0V37.709H4.1532V59.0124Z" fill="black"/>
</g>
<defs>
<clipPath id="clip0_348_582">
<rect width="186" height="70" fill="white"/>
</clipPath>
</defs>
</svg>
